<svg width="1198" height="430" viewBox="0 0 1198 430" fill="none" xmlns="http://www.w3.org/2000/svg">
<mask id="mask0_1_121" style="mask-type:luminance" maskUnits="userSpaceOnUse" x="171" y="0" width="121" height="176">
<path d="M171.483 0H292V175.018H171.483V0Z" fill="white"/>
</mask>
<g mask="url(#mask0_1_121)">
<mask id="mask1_1_121" style="mask-type:luminance" maskUnits="userSpaceOnUse" x="-2" y="-66" width="349" height="349">
<path d="M-1.98206 111.98L175.918 -65.9197L346.897 105.06L168.997 282.959L-1.98206 111.98Z" fill="white"/>
</mask>
<g mask="url(#mask1_1_121)">
<mask id="mask2_1_121" style="mask-type:luminance" maskUnits="userSpaceOnUse" x="-2" y="-66" width="349" height="349">
<path d="M-1.98206 111.98L175.918 -65.9197L346.897 105.06L168.997 282.959L-1.98206 111.98Z" fill="white"/>
</mask>
<g mask="url(#mask2_1_121)">
<mask id="mask3_1_121" style="mask-type:luminance" maskUnits="userSpaceOnUse" x="-2" y="-66" width="349" height="349">
<path d="M-1.98206 111.98L175.918 -65.9197L346.897 105.06L168.997 282.959L-1.98206 111.98Z" fill="white"/>
</mask>
<g mask="url(#mask3_1_121)">
<path d="M292.24 100.409C283.835 40.1503 182.958 0 182.958 0C182.958 0 194.629 53.8866 180.631 86.1958C171.276 107.782 159.309 176.886 241.685 174.742C242.563 174.721 243.472 174.679 244.392 174.604C254.329 143.657 264.195 74.6364 189.438 7.81717C189.438 7.81717 284.156 74.3456 249.28 174.062C271.424 170.739 299.751 154.229 292.24 100.409Z" fill="#80CC28"/>
</g>
</g>
</g>
</g>
<mask id="mask4_1_121" style="mask-type:luminance" maskUnits="userSpaceOnUse" x="0" y="55" width="218" height="161">
<path d="M0 55.2359H217.238V215.669H0V55.2359Z" fill="white"/>
</mask>
<g mask="url(#mask4_1_121)">
<mask id="mask5_1_121" style="mask-type:luminance" maskUnits="userSpaceOnUse" x="0" y="-66" width="349" height="349">
<path d="M0.0179443 111.947L177.918 -65.9527L348.897 105.027L170.997 282.926L0.0179443 111.947Z" fill="white"/>
</mask>
<g mask="url(#mask5_1_121)">
<mask id="mask6_1_121" style="mask-type:luminance" maskUnits="userSpaceOnUse" x="0" y="-66" width="349" height="349">
<path d="M0.0179443 111.947L177.918 -65.9527L348.897 105.027L170.997 282.926L0.0179443 111.947Z" fill="white"/>
</mask>
<g mask="url(#mask6_1_121)">
<mask id="mask7_1_121" style="mask-type:luminance" maskUnits="userSpaceOnUse" x="0" y="-66" width="349" height="349">
<path d="M0.0179443 111.947L177.918 -65.9527L348.897 105.027L170.997 282.926L0.0179443 111.947Z" fill="white"/>
</mask>
<g mask="url(#mask7_1_121)">
<path d="M164.709 115.542C128.529 99.3323 78.6634 91.4582 12.9146 110.22C12.9146 110.22 91.695 77.3801 166.071 108.247C167.312 102.799 168.88 98.0849 170.391 94.6066C174.718 84.6125 176.586 72.5644 177.111 60.6752C106.604 34.4951 0.134888 111.872 0.134888 111.872C0.134888 111.872 65.8687 135.875 91.0533 172.787C106.79 195.867 165.654 249.622 217.037 182.745C166.823 178.269 160.853 141.821 164.709 115.542Z" fill="#27963C"/>
</g>
</g>
</g>
</g>
<path d="M234.731 322.098V215.078C234.731 210.9 236.2 207.338 239.148 204.39C242.09 201.447 245.653 199.973 249.835 199.973H298.439C304.049 199.973 309.564 200.635 314.981 201.953C320.408 203.26 325.252 205.317 329.502 208.119C333.752 210.926 337.179 214.588 339.793 219.098C342.403 223.598 343.71 229.051 343.71 235.453V235.848C343.71 243.557 341.944 249.765 338.418 254.473C334.887 259.182 330.648 262.843 325.689 265.453C333.648 268.453 339.908 272.536 344.481 277.703C349.064 282.859 351.356 290.01 351.356 299.161V299.557C351.356 305.822 350.148 311.307 347.731 316.015C345.314 320.723 341.845 324.65 337.335 327.786C332.835 330.911 327.408 333.26 321.064 334.828C314.731 336.4 307.71 337.182 300.002 337.182H249.835C245.653 337.182 242.09 335.718 239.148 332.786C236.2 329.843 234.731 326.281 234.731 322.098ZM264.127 280.536V310.723H300.002C306.668 310.723 311.898 309.515 315.689 307.098C319.481 304.682 321.377 300.926 321.377 295.828V295.432C321.377 290.864 319.611 287.239 316.085 284.557C312.554 281.88 306.866 280.536 299.023 280.536H264.127ZM264.127 255.453H291.96C298.627 255.453 303.918 254.317 307.835 252.036C311.762 249.744 313.731 246.051 313.731 240.953V240.557C313.731 235.989 312.028 232.494 308.627 230.078C305.22 227.65 300.319 226.432 293.918 226.432H264.127V255.453Z" fill="#3C4937"/>
<path d="M422.889 197.64C433.473 197.64 443.202 199.505 452.077 203.223C460.962 206.947 468.645 211.973 475.118 218.307C481.587 224.64 486.618 232.093 490.202 240.661C493.796 249.218 495.598 258.39 495.598 268.182V268.577C495.598 278.385 493.764 287.567 490.098 296.119C486.441 304.676 481.379 312.192 474.91 318.661C468.452 325.135 460.743 330.234 451.785 333.952C442.837 337.671 433.077 339.536 422.493 339.536C411.91 339.536 402.171 337.671 393.285 333.952C384.395 330.234 376.712 325.202 370.243 318.869C363.785 312.525 358.754 305.072 355.16 296.515C351.577 287.963 349.785 278.781 349.785 268.973V268.577C349.785 258.786 351.608 249.614 355.264 241.057C358.915 232.489 363.978 224.973 370.452 218.515C376.921 212.046 384.629 206.947 393.577 203.223C402.535 199.505 412.306 197.64 422.889 197.64ZM422.889 311.702C429.025 311.702 434.608 310.593 439.639 308.369C444.665 306.15 448.978 303.077 452.577 299.161C456.171 295.244 458.978 290.702 460.993 285.536C463.02 280.369 464.035 274.848 464.035 268.973V268.577C464.035 262.702 463.02 257.156 460.993 251.932C458.978 246.697 456.108 242.119 452.389 238.202C448.665 234.286 444.285 231.182 439.243 228.89C434.212 226.598 428.629 225.452 422.493 225.452C416.478 225.452 410.921 226.567 405.827 228.786C400.728 231.01 396.379 234.088 392.785 238.015C389.202 241.932 386.395 246.473 384.368 251.64C382.337 256.796 381.327 262.307 381.327 268.182V268.577C381.327 274.468 382.337 280.025 384.368 285.244C386.395 290.468 389.27 295.046 392.993 298.973C396.712 302.89 401.124 305.994 406.223 308.286C411.316 310.567 416.874 311.702 422.889 311.702Z" fill="#3C4937"/>
<path d="M491.071 213.89C491.071 210.114 492.446 206.848 495.196 204.098C497.946 201.348 501.207 199.973 504.988 199.973H593.196C596.988 199.973 600.248 201.348 602.988 204.098C605.738 206.848 607.113 210.114 607.113 213.89C607.113 217.682 605.738 220.953 602.988 223.703C600.248 226.442 596.988 227.807 593.196 227.807H564.196V323.265C564.196 327.447 562.722 331.01 559.78 333.953C556.832 336.885 553.269 338.348 549.092 338.348C544.91 338.348 541.347 336.885 538.405 333.953C535.472 331.01 534.009 327.447 534.009 323.265V227.807H504.988C501.207 227.807 497.946 226.442 495.196 223.703C492.446 220.953 491.071 217.682 491.071 213.89Z" fill="#3C4937"/>
<path d="M601.019 317.786L648.852 209.786C650.545 205.994 652.862 203.057 655.81 200.973C658.753 198.88 662.315 197.827 666.498 197.827H668.248C672.425 197.827 675.956 198.88 678.831 200.973C681.706 203.057 683.998 205.994 685.706 209.786L733.519 317.786C734.56 320.661 735.081 322.682 735.081 323.848C735.081 327.906 733.706 331.338 730.956 334.14C728.217 336.947 724.831 338.348 720.789 338.348C717.258 338.348 714.315 337.4 711.956 335.515C709.607 333.63 707.711 331.114 706.269 327.973L697.06 306.411H636.706L627.102 328.952C625.795 331.952 623.925 334.275 621.498 335.911C619.081 337.536 616.31 338.348 613.185 338.348C609.253 338.348 605.946 336.984 603.269 334.244C600.602 331.494 599.269 328.161 599.269 324.244C599.269 323.202 599.425 322.13 599.748 321.015C600.081 319.906 600.503 318.827 601.019 317.786ZM647.873 279.744H685.894L666.873 234.473L647.873 279.744Z" fill="#3C4937"/>
<path d="M738.405 323.453V214.286C738.405 210.109 739.873 206.551 742.821 203.619C745.764 200.676 749.326 199.203 753.509 199.203H756.634C760.3 199.203 763.306 200.025 765.655 201.661C767.998 203.286 770.222 205.406 772.321 208.015L830.53 284.453V213.703C830.53 209.525 831.967 205.994 834.842 203.119C837.717 200.244 841.243 198.807 845.425 198.807C849.602 198.807 853.134 200.244 856.009 203.119C858.884 205.994 860.321 209.525 860.321 213.703V322.869C860.321 327.051 858.847 330.614 855.905 333.557C852.972 336.505 849.415 337.973 845.238 337.973H844.259C840.592 337.973 837.576 337.156 835.217 335.515C832.868 333.88 830.655 331.755 828.571 329.14L768.196 249.953V323.453C768.196 327.635 766.759 331.161 763.884 334.036C761.009 336.911 757.477 338.348 753.3 338.348C749.118 338.348 745.592 336.911 742.717 334.036C739.842 331.161 738.405 327.635 738.405 323.453Z" fill="#3C4937"/>
<path d="M874.223 213.89C874.223 209.713 875.687 206.156 878.619 203.223C881.562 200.281 885.13 198.807 889.327 198.807C893.505 198.807 897.062 200.281 899.994 203.223C902.937 206.156 904.411 209.713 904.411 213.89V323.265C904.411 327.447 902.937 331.01 899.994 333.953C897.062 336.885 893.505 338.348 889.327 338.348C885.13 338.348 881.562 336.885 878.619 333.953C875.687 331.01 874.223 327.447 874.223 323.265V213.89Z" fill="#3C4937"/>
<path d="M918.315 215.078C918.315 210.9 919.784 207.338 922.732 204.39C925.675 201.447 929.237 199.973 933.419 199.973H981.044C988.362 199.973 995.154 200.89 1001.42 202.723C1007.7 204.557 1013.15 207.338 1017.79 211.057C1022.43 214.781 1026.09 219.489 1028.77 225.182C1031.45 230.864 1032.79 237.557 1032.79 245.265V245.64C1032.79 256.63 1030.3 265.489 1025.34 272.223C1020.38 278.947 1013.71 284.005 1005.34 287.39L1026.32 312.869C1027.76 314.703 1028.93 316.505 1029.84 318.265C1030.75 320.031 1031.21 322.088 1031.21 324.432C1031.21 328.63 1029.74 331.994 1026.79 334.536C1023.86 337.078 1020.57 338.348 1016.9 338.348C1013.51 338.348 1010.63 337.598 1008.27 336.098C1005.92 334.598 1003.84 332.739 1002 330.515L972.607 293.286H948.503V323.265C948.503 327.447 947.029 331.01 944.086 333.953C941.154 336.885 937.596 338.348 933.419 338.348C929.237 338.348 925.675 336.885 922.732 333.953C919.784 331.01 918.315 327.447 918.315 323.265V215.078ZM948.503 227.223V266.619H979.086C986.529 266.619 992.242 264.859 996.232 261.328C1000.22 257.801 1002.21 253.098 1002.21 247.223V246.828C1002.21 240.161 1000.12 235.234 995.94 232.036C991.758 228.828 985.945 227.223 978.503 227.223H948.503Z" fill="#3C4937"/>
<path d="M1031.98 317.786L1079.82 209.786C1081.51 205.994 1083.83 203.057 1086.77 200.973C1089.72 198.88 1093.28 197.827 1097.46 197.827H1099.21C1103.39 197.827 1106.92 198.88 1109.79 200.973C1112.67 203.057 1114.96 205.994 1116.67 209.786L1164.48 317.786C1165.52 320.661 1166.04 322.682 1166.04 323.848C1166.04 327.906 1164.67 331.338 1161.92 334.14C1159.18 336.947 1155.79 338.348 1151.75 338.348C1148.22 338.348 1145.28 337.4 1142.92 335.515C1140.57 333.63 1138.67 331.114 1137.23 327.973L1128.02 306.411H1067.67L1058.07 328.952C1056.76 331.952 1054.89 334.275 1052.46 335.911C1050.04 337.536 1047.27 338.348 1044.15 338.348C1040.22 338.348 1036.91 336.984 1034.23 334.244C1031.57 331.494 1030.23 328.161 1030.23 324.244C1030.23 323.202 1030.39 322.13 1030.71 321.015C1031.04 319.906 1031.47 318.827 1031.98 317.786ZM1078.84 279.744H1116.86L1097.84 234.473L1078.84 279.744Z" fill="#3C4937"/>
<path d="M1163.89 321.307C1163.89 316.598 1165.48 312.65 1168.68 309.453C1171.89 306.244 1175.97 304.64 1180.93 304.64C1185.9 304.64 1189.98 306.244 1193.18 309.453C1196.39 312.65 1197.99 316.598 1197.99 321.307V321.703C1197.99 326.4 1196.39 330.348 1193.18 333.557C1189.98 336.755 1185.9 338.348 1180.93 338.348C1175.97 338.348 1171.89 336.755 1168.68 333.557C1165.48 330.348 1163.89 326.4 1163.89 321.703V321.307Z" fill="#3C4937"/>
<path d="M283.404 406.239C286.389 406.895 288.685 408.187 290.3 410.114C291.925 412.03 292.738 414.499 292.738 417.51C292.738 421.4 291.3 424.395 288.425 426.489C285.55 428.588 281.305 429.635 275.696 429.635H254.842V384.28H274.404C279.456 384.28 283.373 385.296 286.154 387.322C288.946 389.353 290.342 392.228 290.342 395.947C290.342 398.447 289.722 400.572 288.488 402.322C287.264 404.072 285.571 405.379 283.404 406.239ZM259.633 388.239V404.697H274.071C277.748 404.697 280.581 403.999 282.571 402.593C284.555 401.176 285.55 399.135 285.55 396.468C285.55 393.791 284.555 391.749 282.571 390.343C280.581 388.942 277.748 388.239 274.071 388.239H259.633ZM275.633 425.676C279.685 425.676 282.748 424.989 284.821 423.614C286.904 422.228 287.946 420.067 287.946 417.135C287.946 411.468 283.842 408.635 275.633 408.635H259.633V425.676H275.633Z" fill="#26973C"/>
<path d="M354.164 425.489V429.635H322.102V384.28H353.185V388.426H326.893V404.551H350.352V408.635H326.893V425.489H354.164Z" fill="#26973C"/>
<path d="M392.667 388.426H376.708V384.28H413.396V388.426H397.458V429.635H392.667V388.426Z" fill="#26973C"/>
<path d="M448.263 388.426H432.305V384.28H468.992V388.426H453.055V429.635H448.263V388.426Z" fill="#26973C"/>
<path d="M527.11 425.489V429.635H495.047V384.28H526.131V388.426H499.839V404.551H523.297V408.635H499.839V425.489H527.11Z" fill="#26973C"/>
<path d="M587.758 429.635L577.404 415.051C576.237 415.192 575.018 415.26 573.758 415.26H561.591V429.635H556.8V384.28H573.758C579.55 384.28 584.081 385.666 587.362 388.426C590.654 391.192 592.3 394.989 592.3 399.822C592.3 403.364 591.404 406.358 589.612 408.801C587.82 411.249 585.258 413.01 581.925 414.093L593.008 429.635H587.758ZM573.633 411.176C578.133 411.176 581.57 410.187 583.945 408.197C586.32 406.213 587.508 403.421 587.508 399.822C587.508 396.155 586.32 393.343 583.945 391.385C581.57 389.416 578.133 388.426 573.633 388.426H561.591V411.176H573.633Z" fill="#26973C"/>
<path d="M657.431 384.28H662.223V425.489H687.618V429.635H657.431V384.28Z" fill="#26973C"/>
<path d="M714 384.28H718.791V429.635H714V384.28Z" fill="#26973C"/>
<path d="M756.763 388.426V406.239H780.221V410.385H756.763V429.635H751.971V384.28H783.055V388.426H756.763Z" fill="#26973C"/>
<path d="M843.454 425.489V429.635H811.391V384.28H842.474V388.426H816.183V404.551H839.641V408.635H816.183V425.489H843.454Z" fill="#26973C"/>
</svg>
